<svg xmlns="http://www.w3.org/2000/svg" viewBox="0 0 269.21 43.36"><defs><style>.cls-1,.cls-2{fill:#3d9ad4;}.cls-2{fill-rule:evenodd;}</style></defs><g id="Layer_2" data-name="Layer 2"><g id="Layer_3" data-name="Layer 3"><path class="cls-1" d="M147.18,33.45a11.94,11.94,0,0,1-9.43-4.53V42a1.25,1.25,0,0,1-1.34,1.33A1.36,1.36,0,0,1,135.12,42V21.25A12.05,12.05,0,0,1,147.18,9.63a11,11,0,0,1,8.39,3.43,12,12,0,0,1,3.66,8.38A12.05,12.05,0,0,1,147.18,33.45Zm0-2.57a9.35,9.35,0,0,0,9.24-9.44,9.27,9.27,0,0,0-9.24-9.29,9.48,9.48,0,0,0-9.43,9.29A9.51,9.51,0,0,0,147.18,30.88Z"/><path class="cls-1" d="M164.29,0a1.26,1.26,0,0,1,1.33,1.29V32.07a1.39,1.39,0,0,1-1.33,1.24A1.26,1.26,0,0,1,163,32.07V1.29A1.18,1.18,0,0,1,164.29,0Z"/><path class="cls-1" d="M193.45,22.16v10.1a1.34,1.34,0,0,1-1.38,1.48,1.48,1.48,0,0,1-1.39-1.48V29a11.82,11.82,0,0,1-9.24,4.48,11.92,11.92,0,1,1,12-12.06Zm-2.77,0v-.72a9.25,9.25,0,0,0-18.49,0,9.25,9.25,0,0,0,18.49.72Z"/><path class="cls-1" d="M221.32,29.59c0,7.05-5.48,12.53-11.86,12.53a1.13,1.13,0,0,1-1.29-1.24,1.28,1.28,0,0,1,1.29-1.33c5.09,0,9-4.43,9-10V29a12,12,0,0,1-21.16-7.67V10.91a1.33,1.33,0,0,1,1.24-1.24,1.23,1.23,0,0,1,1.34,1.24V21.3a9.29,9.29,0,1,0,18.58,0V10.91a1.38,1.38,0,0,1,1.29-1.24,1.34,1.34,0,0,1,1.28,1.24Z"/><path class="cls-1" d="M243.48,12.58a16.45,16.45,0,0,1,1.76,1.91,1.39,1.39,0,0,1,.33.85,2,2,0,0,1-.33.81S231.85,27.4,230.18,28.88a9.38,9.38,0,0,0,12.91-1.29A1.28,1.28,0,0,1,245,27.4a1.66,1.66,0,0,1,.29,1.86,11.94,11.94,0,0,1-21-6.29A11.72,11.72,0,0,1,227,14.25a10.58,10.58,0,0,1,7.86-4.2A11.42,11.42,0,0,1,243.48,12.58ZM228.47,27c1.47-1.53,12.24-10.34,14-11.87-.24-.19-.43-.19-.62-.38A8.95,8.95,0,0,0,228.9,16a8.27,8.27,0,0,0-2.1,5.72A10,10,0,0,0,228.47,27Z"/><polygon class="cls-1" points="65.1 11.51 65.1 26.17 76.08 18.84 65.1 11.51"/><path class="cls-2" d="M100.84,21.82c0-4.2,0-8.4,0-12.6a2.66,2.66,0,0,1,2.71-2.7c2.7.05,5.41,0,8.12,0a14.72,14.72,0,0,1,9.56,3.77,14.88,14.88,0,0,1,5.09,9.32A15.25,15.25,0,0,1,113,37.06a11.28,11.28,0,0,1-1.42.09h-8.25a2.36,2.36,0,0,1-2.45-2.34c0-1.09,0-2.19,0-3.28Zm4.9.06q0,4.92,0,9.85c0,.31.08.39.39.39,1,0,2.09.06,3.14.07a17.88,17.88,0,0,0,3.8-.11,10.32,10.32,0,0,0-1.6-20.47c-1.77,0-3.55,0-5.32,0-.35,0-.41.11-.41.42C105.74,15.31,105.74,18.59,105.74,21.88Z"/><path class="cls-2" d="M85.82,15.92c0,2,0,4.06,0,6.09a14.44,14.44,0,0,1-5,10.86,16.17,16.17,0,0,1-9.53,4.23c-6.87.66-12.51-1.61-16.52-7.38a14,14,0,0,1-2.36-8.18c0-2.56,0-5.12-.09-7.68,0-1.45-.06-2.9-.08-4.34a2.41,2.41,0,0,1,2.13-2.66,4,4,0,0,1,1.46,0A2.47,2.47,0,0,1,57.93,9.5c0,4,0,8.05,0,12.07a10.14,10.14,0,0,0,5.8,9.5A11.32,11.32,0,0,0,77,29.23,9.73,9.73,0,0,0,80.18,22c0-4.19,0-8.38,0-12.57a2.46,2.46,0,0,1,1.54-2.5,3,3,0,0,1,3.35.51,2.43,2.43,0,0,1,.75,1.83Z"/><path class="cls-2" d="M11.79,26.29c-2.09,0-4.17,0-6.26,0-.34,0-.43.06-.42.44q.1,3.91.15,7.85a2.52,2.52,0,0,1-2.4,2.58,2.54,2.54,0,0,1-2.66-2A6.29,6.29,0,0,1,.15,34L.06,25.53C.05,24.3,0,23.08,0,21.85a15.12,15.12,0,0,1,12.22-15A15.75,15.75,0,0,1,25.31,10a2.34,2.34,0,0,1,.72,2.5,2.15,2.15,0,0,1-1.77,1.81,2.78,2.78,0,0,1-2.39-.47,11.59,11.59,0,0,0-5.21-2.28,9.71,9.71,0,0,0-8.85,3.14A9.94,9.94,0,0,0,5.07,21c0,.41.18.34.42.34H18a2.63,2.63,0,0,1,2.62,1.91,2.44,2.44,0,0,1-2.14,3c-.64.06-1.29,0-1.94,0Z"/><path class="cls-2" d="M33.36,15.06c0,2,0,4,0,6a11.33,11.33,0,0,0,7.45,10.3,11.52,11.52,0,0,0,3.94.7h4.09a2.53,2.53,0,0,1,2.54,2.19A2.58,2.58,0,0,1,49.48,37a1.61,1.61,0,0,1-.43.07c-1.7,0-3.4.06-5.1,0a16,16,0,0,1-9.68-3.77,16.27,16.27,0,0,1-5.84-10.22A13.06,13.06,0,0,1,28.24,21c0-4.1,0-8.2,0-12.29a2.61,2.61,0,0,1,1.91-2.49A2.54,2.54,0,0,1,33,7.33a2.75,2.75,0,0,1,.4,1.48v6.25Z"/><path class="cls-2" d="M91.25,21.7c0-4.23,0-8.46,0-12.7a2.5,2.5,0,0,1,2.52-2.62A2.61,2.61,0,0,1,96.31,9V34.37a2.51,2.51,0,0,1-2.22,2.7,2.63,2.63,0,0,1-2.78-1.93,3.5,3.5,0,0,1-.06-1V21.89S91.24,21.7,91.25,21.7Z"/><path class="cls-1" d="M268.83,11.54A3.55,3.55,0,0,0,268,11c-.54-.25-1.12-.41-1.68-.61-.36-.12-.73-.25-1.09-.35a12.26,12.26,0,0,0-12.65,4.11V10.91a1.42,1.42,0,0,0-1.29-1.28,1.47,1.47,0,0,0-1.52,1.28V32.16a1.48,1.48,0,0,0,1.52,1.34,1.44,1.44,0,0,0,1.29-1.34V21.68A9.41,9.41,0,0,1,262,12.2a8.12,8.12,0,0,1,.86,0,9.76,9.76,0,0,1,1.53.25,7.94,7.94,0,0,1,1.5.48,5.51,5.51,0,0,1,.76.4,6.15,6.15,0,0,0,.71.45,1.28,1.28,0,0,0,.48.09,1.41,1.41,0,0,0,1.41-1.41A1.43,1.43,0,0,0,268.83,11.54Z"/></g></g></svg>