<svg xmlns="http://www.w3.org/2000/svg" viewBox="0 0 310.8 50.05"><defs><style>.cls-1,.cls-2{fill:#fff;}.cls-2{fill-rule:evenodd;}</style></defs><title>Logo</title><g id="Layer_2" data-name="Layer 2"><g id="Layer_2-2" data-name="Layer 2"><path class="cls-1" d="M169.89,38.61A13.8,13.8,0,0,1,159,33.39V48.51a1.44,1.44,0,0,1-1.54,1.54A1.57,1.57,0,0,1,156,48.51v-24a13.91,13.91,0,0,1,13.92-13.42,12.71,12.71,0,0,1,9.68,4,13.91,13.91,0,0,1,4.23,9.68A13.92,13.92,0,0,1,169.89,38.61Zm0-3a10.8,10.8,0,0,0,10.67-10.89A10.7,10.7,0,0,0,169.89,14,11,11,0,0,0,159,24.75,11,11,0,0,0,169.89,35.64Z"/><path class="cls-1" d="M189.64,0a1.46,1.46,0,0,1,1.54,1.49V37a1.6,1.6,0,0,1-1.54,1.43A1.45,1.45,0,0,1,188.1,37V1.49A1.35,1.35,0,0,1,189.64,0Z"/><path class="cls-1" d="M223.3,25.58V37.24a1.53,1.53,0,0,1-1.59,1.7,1.69,1.69,0,0,1-1.6-1.7V33.5a13.64,13.64,0,0,1-10.67,5.17A13.75,13.75,0,1,1,223.3,24.75Zm-3.19,0v-.82a10.67,10.67,0,1,0-21.34,0,10.68,10.68,0,0,0,21.34.82Z"/><path class="cls-1" d="M255.47,34.16c0,8.14-6.33,14.47-13.69,14.47a1.3,1.3,0,0,1-1.49-1.43,1.49,1.49,0,0,1,1.49-1.54c5.89,0,10.45-5.12,10.45-11.5v-.72a13.85,13.85,0,0,1-24.42-8.86v-12a1.54,1.54,0,0,1,1.43-1.43,1.42,1.42,0,0,1,1.54,1.43v12a10.73,10.73,0,1,0,21.45,0v-12a1.59,1.59,0,0,1,1.49-1.43,1.55,1.55,0,0,1,1.48,1.43Z"/><path class="cls-1" d="M281,14.52a19,19,0,0,1,2,2.2,1.65,1.65,0,0,1,.38,1,2.27,2.27,0,0,1-.38.93s-15.46,13-17.38,14.69a10.82,10.82,0,0,0,14.91-1.48,1.48,1.48,0,0,1,2.15-.22,1.91,1.91,0,0,1,.33,2.15,13.78,13.78,0,0,1-24.26-7.26A13.56,13.56,0,0,1,262,16.45a12.21,12.21,0,0,1,9.08-4.84A13.09,13.09,0,0,1,281,14.52ZM263.72,31.13c1.71-1.76,14.14-11.94,16.12-13.7-.27-.22-.5-.22-.72-.44a10.17,10.17,0,0,0-7.87-2.48,10.29,10.29,0,0,0-7,3.91,9.53,9.53,0,0,0-2.42,6.6A11.57,11.57,0,0,0,263.72,31.13Z"/><path class="cls-1" d="M291.5,12.6v3.74a14.05,14.05,0,0,1,16.12-4.23l1.49.49.66.33.44.33a1.35,1.35,0,0,1,.6,1.32,1,1,0,0,1-.22.77,1.66,1.66,0,0,1-2.26.49l-.5-.27-.22-.22-1-.49a12.76,12.76,0,0,0-4.24-.77A10.86,10.86,0,0,0,291.5,25v12.1A1.65,1.65,0,0,1,290,38.67a1.71,1.71,0,0,1-1.76-1.54V12.6A1.7,1.7,0,0,1,290,11.11,1.64,1.64,0,0,1,291.5,12.6Z"/><polygon class="cls-1" points="75.15 11.61 75.15 28.54 87.82 20.07 75.15 11.61"/><path class="cls-2" d="M116.4,23.52c0-4.85,0-9.7,0-14.55a3.06,3.06,0,0,1,3.12-3.11c3.12.06,6.25,0,9.37,0a16.94,16.94,0,0,1,11,4.35A17.11,17.11,0,0,1,145.79,21a17.6,17.6,0,0,1-15.38,20.1,13.55,13.55,0,0,1-1.63.11h-9.53a2.72,2.72,0,0,1-2.82-2.69c0-1.26,0-2.53,0-3.79Q116.4,29.13,116.4,23.52Zm5.65.07c0,3.79,0,7.58,0,11.37,0,.36.09.45.45.45,1.21,0,2.42.07,3.63.08a21.58,21.58,0,0,0,4.39-.12A12,12,0,0,0,140.21,22a11.86,11.86,0,0,0-11.55-10.29c-2,0-4.1,0-6.15,0-.4,0-.47.12-.47.49C122.06,16,122.05,19.79,122.05,23.58Z"/><path class="cls-2" d="M99.06,16.71c0,2.34,0,4.68,0,7a16.65,16.65,0,0,1-5.79,12.54,18.8,18.8,0,0,1-11,4.89c-7.93.76-14.45-1.86-19.07-8.52a16.05,16.05,0,0,1-2.72-9.45c0-3,0-5.91-.11-8.86,0-1.67-.06-3.34-.09-5a2.77,2.77,0,0,1,2.46-3.06,4.53,4.53,0,0,1,1.68,0,2.86,2.86,0,0,1,2.47,3c0,4.65,0,9.29,0,13.94,0,5.05,2.39,8.63,6.69,11a13.06,13.06,0,0,0,15.36-2.13,11.24,11.24,0,0,0,3.63-8.36q0-7.25,0-14.5a2.84,2.84,0,0,1,1.78-2.9,3.53,3.53,0,0,1,3.87.59A2.85,2.85,0,0,1,99.06,9Q99.06,12.87,99.06,16.71Z"/><path class="cls-2" d="M13.61,28.68c-2.41,0-4.82,0-7.23,0-.39,0-.5.07-.49.5.08,3,.14,6,.17,9.06a2.92,2.92,0,0,1-2.77,3A2.93,2.93,0,0,1,.24,38.91a6.39,6.39,0,0,1-.06-1.33c0-3.26-.07-6.52-.11-9.78C.05,26.38,0,25,0,23.55A17.46,17.46,0,0,1,14.11,6.23,18.21,18.21,0,0,1,29.22,9.9,2.7,2.7,0,0,1,30,12.79a2.49,2.49,0,0,1-2,2.1,3.23,3.23,0,0,1-2.76-.54,13.47,13.47,0,0,0-6-2.63A11.22,11.22,0,0,0,9,15.33a11.5,11.5,0,0,0-3.17,7.25c0,.47.21.4.48.4h14.4a3,3,0,0,1,3,2.2,2.82,2.82,0,0,1-2.47,3.45c-.74.08-1.5,0-2.25,0Z"/><path class="cls-2" d="M38.51,15.72c0,2.29-.05,4.58,0,6.86a13.13,13.13,0,0,0,13.15,12.7c1.57,0,3.14,0,4.71,0a2.92,2.92,0,0,1,2.94,2.53,3,3,0,0,1-2.2,3.26,2,2,0,0,1-.5.08c-2,0-3.93.07-5.89,0a18.45,18.45,0,0,1-11.17-4.35A18.8,18.8,0,0,1,32.81,25a15.35,15.35,0,0,1-.21-2.39c0-4.73,0-9.46,0-14.19A3,3,0,0,1,34.8,5.53,2.93,2.93,0,0,1,38,6.79a3.11,3.11,0,0,1,.46,1.7q0,3.61,0,7.22Z"/><path class="cls-2" d="M105.33,23.38c0-4.89,0-9.77,0-14.66a2.89,2.89,0,0,1,2.91-3,3,3,0,0,1,2.94,3.05q0,14.63,0,29.26a2.9,2.9,0,0,1-2.57,3.11,3,3,0,0,1-3.21-2.22,4.2,4.2,0,0,1-.07-1.12c0-4.8,0-9.37,0-14.17C105.34,23.6,105.32,23.38,105.33,23.38Z"/></g></g></svg>