<svg id="Layer_1" data-name="Layer 1" xmlns="http://www.w3.org/2000/svg" viewBox="0 0 378.6 60.97"><defs><style>.cls-1,.cls-4{fill:#22baed;}.cls-2,.cls-3{fill:#fff;}.cls-3,.cls-4{fill-rule:evenodd;}</style></defs><title>fluid-player-logo</title><path class="cls-1" d="M212.69,53.82a16.81,16.81,0,0,1-13.27-6.37V65.88a1.76,1.76,0,0,1-1.88,1.88,1.91,1.91,0,0,1-1.81-1.88V36.67a16.94,16.94,0,0,1,17-16.35,15.48,15.48,0,0,1,11.79,4.82,17,17,0,0,1,5.16,11.79A17,17,0,0,1,212.69,53.82Zm0-3.62a13.15,13.15,0,0,0,13-13.27,13,13,0,0,0-13-13.07,13.34,13.34,0,0,0-13.27,13.07A13.38,13.38,0,0,0,212.69,50.21Z" transform="translate(-5.74 -6.79)"/><path class="cls-1" d="M236.74,6.79a1.77,1.77,0,0,1,1.88,1.81V51.88a2,2,0,0,1-1.88,1.74,1.76,1.76,0,0,1-1.88-1.74V8.6A1.65,1.65,0,0,1,236.74,6.79Z" transform="translate(-5.74 -6.79)"/><path class="cls-1" d="M277.75,37.94V52.15a1.87,1.87,0,0,1-1.94,2.08,2.06,2.06,0,0,1-1.94-2.08V47.59a16.62,16.62,0,0,1-13,6.3,16.75,16.75,0,1,1,16.88-17Zm-3.89,0v-1a13,13,0,1,0-26,0,13,13,0,0,0,26,1Z" transform="translate(-5.74 -6.79)"/><path class="cls-1" d="M316.94,48.4c0,9.92-7.71,17.62-16.68,17.62a1.58,1.58,0,0,1-1.81-1.74,1.81,1.81,0,0,1,1.81-1.88c7.17,0,12.73-6.23,12.73-14v-.87a16.88,16.88,0,0,1-29.75-10.79V22.13A1.87,1.87,0,0,1,285,20.39a1.72,1.72,0,0,1,1.88,1.74V36.74a13.07,13.07,0,1,0,26.13,0V22.13a1.94,1.94,0,0,1,1.81-1.74,1.88,1.88,0,0,1,1.81,1.74Z" transform="translate(-5.74 -6.79)"/><path class="cls-1" d="M348.09,24.48a23.16,23.16,0,0,1,2.48,2.68,2,2,0,0,1,.47,1.21,2.76,2.76,0,0,1-.47,1.14S331.74,45.31,329.4,47.39a13.18,13.18,0,0,0,18.16-1.81,1.8,1.8,0,0,1,2.61-.27,2.32,2.32,0,0,1,.4,2.61A16.79,16.79,0,0,1,321,39.08a16.52,16.52,0,0,1,3.89-12.26A14.88,14.88,0,0,1,336,20.93,16,16,0,0,1,348.09,24.48ZM327,44.71c2.08-2.14,17.22-14.54,19.63-16.68-.33-.27-.6-.27-.87-.54a12.38,12.38,0,0,0-9.58-3,12.54,12.54,0,0,0-8.58,4.76,11.61,11.61,0,0,0-2.95,8A14.1,14.1,0,0,0,327,44.71Z" transform="translate(-5.74 -6.79)"/><path class="cls-1" d="M360.82,22.13v4.56a17.12,17.12,0,0,1,19.63-5.16l1.81.6.8.4.54.4a1.64,1.64,0,0,1,.74,1.61,1.28,1.28,0,0,1-.27.94,2,2,0,0,1-2.75.6l-.6-.33-.27-.27-1.21-.6a15.54,15.54,0,0,0-5.16-.94,13.23,13.23,0,0,0-13.27,13.33V52A2,2,0,0,1,359,53.89,2.08,2.08,0,0,1,356.87,52V22.13A2.08,2.08,0,0,1,359,20.32,2,2,0,0,1,360.82,22.13Z" transform="translate(-5.74 -6.79)"/><polygon class="cls-2" points="91.54 14.14 91.54 34.76 106.98 24.45 91.54 14.14"/><path class="cls-3" d="M147.53,35.43c0-5.91,0-11.82,0-17.72a3.73,3.73,0,0,1,3.8-3.79c3.8.07,7.61,0,11.42.06a20.64,20.64,0,0,1,13.44,5.3,20.84,20.84,0,0,1,7.16,13.1,21.44,21.44,0,0,1-18.73,24.48,16.51,16.51,0,0,1-2,.13q-5.8,0-11.61,0a3.31,3.31,0,0,1-3.44-3.28c-.05-1.54,0-3.08,0-4.62Q147.53,42.27,147.53,35.43Zm6.88.08c0,4.62,0,9.23,0,13.85,0,.44.11.55.54.55,1.47,0,2.95.09,4.42.1a26.28,26.28,0,0,0,5.34-.15,14.6,14.6,0,0,0,11.82-16.25,14.44,14.44,0,0,0-14.07-12.54c-2.5,0-5,0-7.49,0-.49,0-.57.15-.57.59C154.42,26.28,154.42,30.9,154.42,35.51Z" transform="translate(-5.74 -6.79)"/><path class="cls-4" d="M126.4,27.14c0,2.85,0,5.7,0,8.55A20.29,20.29,0,0,1,119.34,51a22.91,22.91,0,0,1-13.4,6c-9.66.92-17.6-2.27-23.24-10.38A19.56,19.56,0,0,1,79.39,35c0-3.6,0-7.2-.14-10.79-.05-2-.08-4.07-.1-6.11a3.37,3.37,0,0,1,3-3.73,5.52,5.52,0,0,1,2,0,3.48,3.48,0,0,1,3,3.71c0,5.66,0,11.32,0,17,0,6.15,2.91,10.52,8.15,13.36a15.91,15.91,0,0,0,18.72-2.59,13.69,13.69,0,0,0,4.42-10.18q0-8.83,0-17.67a3.46,3.46,0,0,1,2.16-3.53,4.3,4.3,0,0,1,4.71.72,3.47,3.47,0,0,1,1,2.59Q126.4,22.46,126.4,27.14Z" transform="translate(-5.74 -6.79)"/><path class="cls-3" d="M22.31,41.72c-2.93,0-5.87,0-8.8,0-.47,0-.61.08-.59.61.1,3.68.17,7.36.21,11A3.6,3.6,0,0,1,6,54.18,7.79,7.79,0,0,1,6,52.57c-.05-4-.09-7.94-.13-11.92,0-1.72-.08-3.45-.08-5.17a21.27,21.27,0,0,1,17.18-21.1,22.18,22.18,0,0,1,18.41,4.47,3.28,3.28,0,0,1,1,3.51,3,3,0,0,1-2.48,2.55,3.93,3.93,0,0,1-3.36-.66A16.41,16.41,0,0,0,29.16,21a13.67,13.67,0,0,0-12.44,4.41,14,14,0,0,0-3.86,8.83c0,.58.26.48.59.48H31a3.68,3.68,0,0,1,3.69,2.68,3.44,3.44,0,0,1-3,4.21c-.91.09-1.83.05-2.74.06Z" transform="translate(-5.74 -6.79)"/><path class="cls-3" d="M52.65,25.93c0,2.79-.06,5.58,0,8.36a16,16,0,0,0,16,15.46c1.91,0,3.83,0,5.74,0A3.56,3.56,0,0,1,78,52.85a3.63,3.63,0,0,1-2.68,4,2.41,2.41,0,0,1-.61.1c-2.39,0-4.79.09-7.17,0a22.47,22.47,0,0,1-13.61-5.3,22.9,22.9,0,0,1-8.21-14.37,18.69,18.69,0,0,1-.26-2.91c0-5.76,0-11.52,0-17.28a3.66,3.66,0,0,1,2.69-3.5,3.57,3.57,0,0,1,4,1.54,3.79,3.79,0,0,1,.56,2.07q0,4.4,0,8.8Z" transform="translate(-5.74 -6.79)"/><path class="cls-3" d="M134,35.27c0-6,0-11.9,0-17.85a3.52,3.52,0,0,1,3.55-3.69,3.66,3.66,0,0,1,3.59,3.72q0,17.82,0,35.64A3.54,3.54,0,0,1,138,56.87a3.69,3.69,0,0,1-3.9-2.71A5.12,5.12,0,0,1,134,52.8c0-5.85,0-11.42,0-17.27C134.05,35.54,134,35.27,134,35.27Z" transform="translate(-5.74 -6.79)"/></svg>